<svg width="284" height="80" viewBox="0 0 284 80" fill="none" xmlns="http://www.w3.org/2000/svg">
<mask id="path-1-inside-1_8_16428" fill="white">
<path d="M0 0H284V80H0V0Z"/>
</mask>
<path d="M284 79H0V81H284V79Z" fill="#EFEFEF" mask="url(#path-1-inside-1_8_16428)"/>
<path fill-rule="evenodd" clip-rule="evenodd" d="M31.9611 20.575C33.8658 20.2333 35.8299 20.5718 37.5103 21.5313C38.5671 22.1348 39.4693 22.9597 40.161 23.94L41.3733 23.2322C43.0497 22.2644 45.0129 21.9168 46.9197 22.2501C48.8265 22.5834 50.5554 23.5763 51.8041 25.0554C53.0528 26.5344 53.7418 28.4053 53.7507 30.341C53.7563 31.5681 53.4883 32.7718 52.9766 33.8682L54.0658 34.5038C54.0671 34.5046 54.0683 34.5053 54.0696 34.5061C55.951 35.5942 57.3237 37.3846 57.886 39.4841C58.4488 41.585 58.1541 43.8234 57.0667 45.7071C55.695 48.0831 53.3662 49.5263 50.8332 49.7721V51.3062C50.8322 53.2412 50.1512 55.1153 48.9092 56.5992C47.6672 58.0831 45.9433 59.0833 44.0386 59.425C42.134 59.7667 40.1699 59.4282 38.4895 58.4687C37.4327 57.8652 36.5305 57.0403 35.8388 56.06L34.6343 56.7632L34.6265 56.7677C32.9502 57.7355 30.9869 58.0831 29.0802 57.7499C27.1734 57.4166 25.4445 56.4236 24.1958 54.9446C22.947 53.4656 22.258 51.5946 22.2492 49.659C22.2434 48.3974 22.5268 47.1607 23.0669 46.0396L21.9264 45.3671C20.047 44.2787 18.6758 42.4893 18.1138 40.3913C17.5511 38.2904 17.8458 36.0519 18.9332 34.1683C20.3048 31.7923 22.6336 30.3491 25.1666 30.1032V28.6938C25.1676 26.7588 25.8486 24.8847 27.0906 23.4008C28.3325 21.9169 30.0565 20.9167 31.9611 20.575ZM28.8332 32.0192C28.8336 31.9971 28.8336 31.9751 28.8332 31.9531V28.6948C28.8338 27.6196 29.2122 26.5787 29.9023 25.7542C30.5924 24.9297 31.5504 24.3739 32.6087 24.184C33.667 23.9942 34.7584 24.1822 35.6921 24.7154C36.1861 24.9975 36.6194 25.3668 36.9733 25.8012L33.4088 27.8824C32.846 28.2111 32.4999 28.8139 32.4999 29.4657V37.7204C32.4995 37.7428 32.4995 37.7652 32.4999 37.7877V39.031L28.8332 36.9227V32.0192ZM22.1087 36.0014C22.8123 34.7825 23.9317 34.0256 25.1666 33.8021L22.1087 36.0014ZM25.1666 33.8021V37.9833C25.1666 38.6395 25.5172 39.2456 26.086 39.5727L33.3929 43.7741C33.4113 43.7851 33.43 43.7959 33.4488 43.8063L34.2739 44.2807L30.6918 46.2795L23.7824 42.2048L23.7681 42.1965C22.7267 41.5949 21.9668 40.6043 21.6556 39.4426C21.3444 38.2808 21.5074 37.043 22.1087 36.0014M38.755 45.9791C38.8498 45.9364 38.9412 45.8855 39.0281 45.8267L39.8333 45.3774V49.4818L32.7933 53.5922C32.7922 53.5929 32.791 53.5936 32.7898 53.5942C31.8591 54.1305 30.7696 54.3229 29.7115 54.138C28.652 53.9528 27.6913 53.401 26.9974 52.5792C26.3036 51.7574 25.9207 50.7178 25.9158 49.6422C25.9131 49.0458 26.0266 48.4594 26.2454 47.9141L29.7353 49.9722C30.2964 50.3031 30.991 50.3114 31.5599 49.994L38.755 45.9791ZM43.4999 42.287V50.5343C43.4999 51.1861 43.1539 51.7889 42.591 52.1175L39.0265 54.1988C39.3804 54.6332 39.8137 55.0025 40.3077 55.2846C41.2414 55.8178 42.3328 56.0058 43.3911 55.816C44.4494 55.6261 45.4074 55.0703 46.0975 54.2458C46.7876 53.4213 47.166 52.3804 47.1665 51.3052V47.9197C47.1662 47.8994 47.1662 47.8791 47.1665 47.8586V42.9094L43.4999 40.8623V42.2197C43.5004 42.2422 43.5004 42.2646 43.4999 42.287ZM39.8333 41.1786L38.007 42.1976L36.1666 41.1394V38.8136L37.9728 37.7763L39.8333 38.815V41.1786ZM41.6805 35.6469L49.8936 40.2326C50.4737 40.5565 50.8332 41.1689 50.8332 41.8333V46.0733C52.0681 45.8497 53.1875 45.0929 53.8911 43.8739C54.4924 42.8323 54.6554 41.5945 54.3442 40.4328C54.033 39.271 53.2732 38.2804 52.2317 37.6788L52.2247 37.6748L45.2434 33.6007L41.6805 35.6469ZM36.1666 34.5853L44.3377 29.8925C44.907 29.5656 45.6077 29.568 46.1748 29.8989L49.7856 32.0061C49.984 31.4835 50.0867 30.9251 50.0841 30.3577C50.0792 29.2822 49.6963 28.2426 49.0024 27.4208C48.3086 26.5989 47.3479 26.0472 46.2884 25.862C45.2302 25.677 44.1407 25.8695 43.21 26.4057C43.2088 26.4064 43.2077 26.4071 43.2065 26.4077L36.1666 30.5182V34.5853Z" fill="url(#paint0_linear_8_16428)"/>
<path d="M73.632 48V31.2H76.704V45.6H84.144V48H73.632ZM91.9517 48.288C90.7997 48.288 89.7597 48.024 88.8317 47.496C87.9197 46.968 87.1917 46.24 86.6477 45.312C86.1197 44.368 85.8557 43.28 85.8557 42.048C85.8557 40.816 86.1277 39.736 86.6717 38.808C87.2157 37.864 87.9437 37.128 88.8557 36.6C89.7837 36.072 90.8237 35.808 91.9757 35.808C93.1117 35.808 94.1357 36.072 95.0477 36.6C95.9757 37.128 96.7037 37.864 97.2317 38.808C97.7757 39.736 98.0477 40.816 98.0477 42.048C98.0477 43.28 97.7757 44.368 97.2317 45.312C96.7037 46.24 95.9757 46.968 95.0477 47.496C94.1197 48.024 93.0877 48.288 91.9517 48.288ZM91.9517 45.624C92.7517 45.624 93.4477 45.328 94.0397 44.736C94.6317 44.128 94.9277 43.232 94.9277 42.048C94.9277 40.864 94.6317 39.976 94.0397 39.384C93.4477 38.776 92.7597 38.472 91.9757 38.472C91.1597 38.472 90.4557 38.776 89.8637 39.384C89.2877 39.976 88.9997 40.864 88.9997 42.048C88.9997 43.232 89.2877 44.128 89.8637 44.736C90.4557 45.328 91.1517 45.624 91.9517 45.624ZM105.084 44.448C104.508 44.448 103.972 44.384 103.476 44.256L102.588 45.144C102.86 45.288 103.228 45.408 103.692 45.504C104.156 45.6 104.908 45.696 105.948 45.792C107.532 45.936 108.684 46.312 109.404 46.92C110.124 47.528 110.484 48.368 110.484 49.44C110.484 50.144 110.292 50.808 109.908 51.432C109.524 52.072 108.932 52.584 108.132 52.968C107.332 53.368 106.308 53.568 105.06 53.568C103.364 53.568 101.996 53.248 100.956 52.608C99.9164 51.984 99.3964 51.04 99.3964 49.776C99.3964 48.704 99.9164 47.776 100.956 46.992C100.636 46.848 100.356 46.696 100.116 46.536C99.8924 46.376 99.6924 46.208 99.5164 46.032V45.48L101.604 43.272C100.676 42.456 100.212 41.408 100.212 40.128C100.212 39.328 100.404 38.6 100.788 37.944C101.188 37.288 101.748 36.768 102.468 36.384C103.188 36 104.06 35.808 105.084 35.808C105.756 35.808 106.38 35.904 106.956 36.096H111.468V37.968L109.428 38.112C109.748 38.72 109.908 39.392 109.908 40.128C109.908 40.928 109.716 41.656 109.332 42.312C108.948 42.968 108.388 43.488 107.652 43.872C106.932 44.256 106.076 44.448 105.084 44.448ZM105.084 42.096C105.708 42.096 106.22 41.928 106.62 41.592C107.036 41.256 107.244 40.776 107.244 40.152C107.244 39.528 107.036 39.048 106.62 38.712C106.22 38.376 105.708 38.208 105.084 38.208C104.428 38.208 103.9 38.376 103.5 38.712C103.1 39.048 102.9 39.528 102.9 40.152C102.9 40.776 103.1 41.256 103.5 41.592C103.9 41.928 104.428 42.096 105.084 42.096ZM102.204 49.464C102.204 50.056 102.476 50.496 103.02 50.784C103.58 51.088 104.26 51.24 105.06 51.24C105.828 51.24 106.452 51.08 106.932 50.76C107.412 50.456 107.652 50.04 107.652 49.512C107.652 49.08 107.492 48.72 107.172 48.432C106.868 48.144 106.252 47.968 105.324 47.904C104.668 47.856 104.06 47.784 103.5 47.688C103.036 47.944 102.7 48.224 102.492 48.528C102.3 48.832 102.204 49.144 102.204 49.464ZM118.952 48.288C117.8 48.288 116.76 48.024 115.832 47.496C114.92 46.968 114.192 46.24 113.648 45.312C113.12 44.368 112.856 43.28 112.856 42.048C112.856 40.816 113.128 39.736 113.672 38.808C114.216 37.864 114.944 37.128 115.856 36.6C116.784 36.072 117.824 35.808 118.976 35.808C120.112 35.808 121.136 36.072 122.048 36.6C122.976 37.128 123.704 37.864 124.232 38.808C124.776 39.736 125.048 40.816 125.048 42.048C125.048 43.28 124.776 44.368 124.232 45.312C123.704 46.24 122.976 46.968 122.048 47.496C121.12 48.024 120.088 48.288 118.952 48.288ZM118.952 45.624C119.752 45.624 120.448 45.328 121.04 44.736C121.632 44.128 121.928 43.232 121.928 42.048C121.928 40.864 121.632 39.976 121.04 39.384C120.448 38.776 119.76 38.472 118.976 38.472C118.16 38.472 117.456 38.776 116.864 39.384C116.288 39.976 116 40.864 116 42.048C116 43.232 116.288 44.128 116.864 44.736C117.456 45.328 118.152 45.624 118.952 45.624ZM133.585 48V31.2H140.329C142.073 31.2 143.401 31.608 144.313 32.424C145.241 33.224 145.705 34.256 145.705 35.52C145.705 36.576 145.417 37.424 144.841 38.064C144.281 38.688 143.593 39.112 142.777 39.336C143.737 39.528 144.529 40.008 145.153 40.776C145.777 41.528 146.089 42.408 146.089 43.416C146.089 44.744 145.609 45.84 144.649 46.704C143.689 47.568 142.329 48 140.569 48H133.585ZM136.657 38.256H139.873C140.737 38.256 141.401 38.056 141.865 37.656C142.329 37.256 142.561 36.688 142.561 35.952C142.561 35.248 142.329 34.696 141.865 34.296C141.417 33.88 140.737 33.672 139.825 33.672H136.657V38.256ZM136.657 45.504H140.089C141.001 45.504 141.705 45.296 142.201 44.88C142.713 44.448 142.969 43.848 142.969 43.08C142.969 42.296 142.705 41.68 142.177 41.232C141.649 40.784 140.937 40.56 140.041 40.56H136.657V45.504ZM148.654 48V36.096H151.39L151.678 38.328C152.11 37.56 152.694 36.952 153.43 36.504C154.182 36.04 155.062 35.808 156.07 35.808V39.048H155.206C154.534 39.048 153.934 39.152 153.406 39.36C152.878 39.568 152.462 39.928 152.158 40.44C151.87 40.952 151.726 41.664 151.726 42.576V48H148.654ZM162.273 48.288C161.249 48.288 160.409 48.128 159.753 47.808C159.097 47.472 158.609 47.032 158.289 46.488C157.969 45.944 157.809 45.344 157.809 44.688C157.809 43.584 158.241 42.688 159.105 42C159.969 41.312 161.265 40.968 162.993 40.968H166.017V40.68C166.017 39.864 165.785 39.264 165.321 38.88C164.857 38.496 164.281 38.304 163.593 38.304C162.969 38.304 162.425 38.456 161.961 38.76C161.497 39.048 161.209 39.48 161.097 40.056H158.097C158.177 39.192 158.465 38.44 158.961 37.8C159.473 37.16 160.129 36.672 160.929 36.336C161.729 35.984 162.625 35.808 163.617 35.808C165.313 35.808 166.649 36.232 167.625 37.08C168.601 37.928 169.089 39.128 169.089 40.68V48H166.473L166.185 46.08C165.833 46.72 165.337 47.248 164.697 47.664C164.073 48.08 163.265 48.288 162.273 48.288ZM162.969 45.888C163.849 45.888 164.529 45.6 165.009 45.024C165.505 44.448 165.817 43.736 165.945 42.888H163.329C162.513 42.888 161.929 43.04 161.577 43.344C161.225 43.632 161.049 43.992 161.049 44.424C161.049 44.888 161.225 45.248 161.577 45.504C161.929 45.76 162.393 45.888 162.969 45.888ZM172.021 48V36.096H174.733L174.973 38.112C175.341 37.408 175.869 36.848 176.557 36.432C177.261 36.016 178.085 35.808 179.029 35.808C180.501 35.808 181.645 36.272 182.461 37.2C183.277 38.128 183.685 39.488 183.685 41.28V48H180.613V41.568C180.613 40.544 180.405 39.76 179.989 39.216C179.573 38.672 178.925 38.4 178.045 38.4C177.181 38.4 176.469 38.704 175.909 39.312C175.365 39.92 175.093 40.768 175.093 41.856V48H172.021ZM192.095 48.288C190.975 48.288 189.975 48.016 189.095 47.472C188.215 46.928 187.519 46.184 187.007 45.24C186.495 44.296 186.239 43.224 186.239 42.024C186.239 40.824 186.495 39.76 187.007 38.832C187.519 37.888 188.215 37.152 189.095 36.624C189.975 36.08 190.975 35.808 192.095 35.808C192.991 35.808 193.775 35.976 194.447 36.312C195.119 36.648 195.663 37.12 196.079 37.728V30.72H199.151V48H196.415L196.079 46.296C195.695 46.824 195.183 47.288 194.543 47.688C193.919 48.088 193.103 48.288 192.095 48.288ZM192.743 45.6C193.735 45.6 194.543 45.272 195.167 44.616C195.807 43.944 196.127 43.088 196.127 42.048C196.127 41.008 195.807 40.16 195.167 39.504C194.543 38.832 193.735 38.496 192.743 38.496C191.767 38.496 190.959 38.824 190.319 39.48C189.679 40.136 189.359 40.984 189.359 42.024C189.359 43.064 189.679 43.92 190.319 44.592C190.959 45.264 191.767 45.6 192.743 45.6Z" fill="url(#paint1_linear_8_16428)"/>
<defs>
<linearGradient id="paint0_linear_8_16428" x1="17.8345" y1="20.4453" x2="65.9304" y2="42.987" gradientUnits="userSpaceOnUse">
<stop stop-color="#4D84FF"/>
<stop offset="1" stop-color="#DE8FFF"/>
</linearGradient>
<linearGradient id="paint1_linear_8_16428" x1="72" y1="14" x2="153.655" y2="113.202" gradientUnits="userSpaceOnUse">
<stop stop-color="#4D84FF"/>
<stop offset="1" stop-color="#DE8FFF"/>
</linearGradient>
</defs>
</svg>
