<svg width="29" height="27" viewBox="0 0 29 27" fill="none" xmlns="http://www.w3.org/2000/svg">
<path fill-rule="evenodd" clip-rule="evenodd" d="M19.5 4.5C19.5 1.99007 21.4901 0 24 0C26.5099 0 28.5 1.99007 28.5 4.5V22.5C28.5 22.8978 28.342 23.2794 28.0607 23.5607L25.0607 26.5607C24.7794 26.842 24.3978 27 24 27H4.5C3.30653 27 2.16193 26.5259 1.31802 25.682C0.474106 24.8381 0 23.6935 0 22.5C0 21.3065 0.474106 20.1619 1.31802 19.318C2.16193 18.4741 3.30653 18 4.5 18H10.5C10.8978 18 11.2794 17.842 11.5607 17.5607C11.842 17.2794 12 16.8978 12 16.5C12 16.1022 11.842 15.7206 11.5607 15.4393C11.2794 15.158 10.8978 15 10.5 15H6C5.17157 15 4.5 14.3284 4.5 13.5C4.5 12.6716 5.17157 12 6 12H10.5C11.6935 12 12.8381 12.4741 13.682 13.318C14.5259 14.1619 15 15.3065 15 16.5C15 17.6935 14.5259 18.8381 13.682 19.682C12.8381 20.5259 11.6935 21 10.5 21H4.5C4.10218 21 3.72064 21.158 3.43934 21.4393C3.15804 21.7206 3 22.1022 3 22.5C3 22.8978 3.15804 23.2794 3.43934 23.5607C3.72064 23.842 4.10218 24 4.5 24H20.3787L19.9393 23.5607C19.658 23.2794 19.5 22.8978 19.5 22.5V4.5ZM22.5 9V21.8787L24 23.3787L25.5 21.8787V9H22.5ZM25.5 6H22.5V4.5C22.5 3.64693 23.1469 3 24 3C24.8531 3 25.5 3.64693 25.5 4.5V6Z" fill="#181818"/>
</svg>
